<svg xmlns="http://www.w3.org/2000/svg" viewBox="0 0 381 432">
  <title>Klarvido symbol navy</title>
  <g fill="#04213F" fill-rule="evenodd">
    <path d="M 54 227 L 53 227 L 34 246 L 30 252 L 25 257 L 17 271 L 17 273 L 14 279 L 14 283 L 13 284 L 13 290 L 12 291 L 12 416 L 13 418 L 16 420 L 47 420 L 48 419 L 57 419 L 58 418 L 63 418 L 64 417 L 67 417 L 68 416 L 79 413 L 89 408 L 103 398 L 110 391 L 110 390 L 118 381 L 126 366 L 126 364 L 129 357 L 129 354 L 130 353 L 130 349 L 131 348 L 131 326 L 128 318 L 126 315 L 80 269 L 80 268 L 74 263 L 74 262 L 67 255 L 58 240 Z M 44 17 L 37 23 L 25 39 L 19 51 L 19 53 L 17 57 L 17 60 L 16 61 L 15 71 L 14 72 L 14 98 L 15 99 L 15 105 L 16 106 L 16 110 L 17 111 L 18 118 L 19 119 L 21 127 L 24 132 L 24 134 L 28 142 L 34 150 L 37 156 L 51 172 L 51 173 L 72 194 L 73 194 L 74 196 L 88 210 L 89 210 L 90 212 L 92 213 L 99 220 L 99 221 L 102 223 L 117 238 L 117 239 L 121 242 L 133 254 L 133 255 L 137 258 L 149 270 L 149 271 L 150 271 L 244 366 L 244 367 L 252 375 L 252 376 L 257 381 L 259 385 L 262 388 L 270 403 L 272 405 L 275 415 L 278 418 L 280 419 L 357 419 L 362 417 L 364 414 L 364 380 L 363 379 L 363 372 L 362 371 L 362 366 L 361 365 L 360 356 L 359 355 L 358 349 L 357 348 L 354 337 L 352 334 L 352 332 L 341 311 L 329 293 L 324 288 L 319 281 L 62 24 L 54 13 L 50 13 Z M 338 15 L 335 15 L 330 13 L 314 12 L 313 13 L 308 13 L 307 14 L 304 14 L 303 15 L 300 15 L 299 16 L 294 17 L 290 20 L 285 22 L 277 28 L 224 81 L 223 81 L 208 97 L 205 99 L 205 102 L 208 104 L 216 113 L 217 113 L 246 142 L 249 146 L 250 146 L 274 170 L 276 171 L 278 170 L 289 159 L 290 159 L 295 153 L 296 153 L 358 92 L 366 78 L 366 76 L 368 72 L 368 69 L 369 68 L 369 53 L 368 52 L 368 48 L 367 47 L 366 42 L 361 33 L 352 23 Z"/>
  </g>
</svg>